<svg xmlns="http://www.w3.org/2000/svg" version="1.1" xmlns:xlink="http://www.w3.org/1999/xlink" xmlns:svgjs="http://svgjs.dev/svgjs" width="2000" height="1247" viewBox="0 0 2000 1247"><g transform="matrix(1,0,0,1,-1.2121212121212466,0.504858299595071)"><svg viewBox="0 0 396 247" data-background-color="#000000" preserveAspectRatio="xMidYMid meet" height="1247" width="2000" xmlns="http://www.w3.org/2000/svg" xmlns:xlink="http://www.w3.org/1999/xlink"><g id="tight-bounds" transform="matrix(1,0,0,1,0.2400000000000091,-0.09999999999999432)"><svg viewBox="0 0 395.52 247.2" height="247.2" width="395.52"><rect width="395.52" height="247.2" fill="url(#c00951ad-d829-4928-b877-46b42da935df)" mask="url(#1a0b0b92-bbfe-4103-83e9-e30871bb7991)" data-fill-palette-color="tertiary"></rect><g><svg></svg></g><g><svg viewBox="0 0 395.52 247.2" height="247.2" width="395.52"><g transform="matrix(1,0,0,1,75.54432,59.953295587392546)"><svg viewBox="0 0 244.43135999999998 127.2934088252149" height="127.2934088252149" width="244.43135999999998"><g><svg viewBox="0 0 244.43135999999998 127.2934088252149" height="127.2934088252149" width="244.43135999999998"><g><svg viewBox="0 0 244.43135999999998 127.2934088252149" height="127.2934088252149" width="244.43135999999998"><g><svg viewBox="0 0 244.43135999999998 127.2934088252149" height="127.2934088252149" width="244.43135999999998"><g id="textblocktransform"><svg viewBox="0 0 244.43135999999998 127.2934088252149" height="127.2934088252149" width="244.43135999999998" id="textblock"><g><svg viewBox="0 0 244.43135999999998 127.2934088252149" height="127.2934088252149" width="244.43135999999998"><g transform="matrix(1,0,0,1,0,0)"><svg width="244.43135999999998" viewBox="-3.42 -35.06 68.16 35.5" height="127.2934088252149" data-palette-color="url(#175b2cf2-5823-4be6-9d40-3743deb5c1c4)"></svg></g></svg></g></svg></g></svg></g></svg></g></svg></g></svg></g><g><path d="M0 123.6c0-68.262 55.338-123.6 123.6-123.6 38.374 0 72.663 17.487 95.334 44.928l-7.573 0c-21.578-24.055-52.902-39.188-87.761-39.188-65.092 0-117.86 52.768-117.86 117.86 0 65.092 52.768 117.86 117.86 117.86 34.859 0 66.183-15.133 87.761-39.188h7.573c-22.67 27.44-56.96 44.928-95.334 44.928-68.262 0-123.6-55.338-123.6-123.6z" fill="url(#c00951ad-d829-4928-b877-46b42da935df)" stroke="transparent" data-fill-palette-color="tertiary"></path></g></svg></g><defs></defs><mask id="19eda87a-edde-455a-80e6-e9cb70d96c6b"><g id="SvgjsG2540"><svg viewBox="0 0 395.52 247.2" height="247.2" width="395.52"><g><svg></svg></g><g><svg viewBox="0 0 395.52 247.2" height="247.2" width="395.52"><g transform="matrix(1,0,0,1,75.54432,59.953295587392546)"><svg viewBox="0 0 244.43135999999998 127.2934088252149" height="127.2934088252149" width="244.43135999999998"><g><svg viewBox="0 0 244.43135999999998 127.2934088252149" height="127.2934088252149" width="244.43135999999998"><g><svg viewBox="0 0 244.43135999999998 127.2934088252149" height="127.2934088252149" width="244.43135999999998"><g><svg viewBox="0 0 244.43135999999998 127.2934088252149" height="127.2934088252149" width="244.43135999999998"><g id="SvgjsG2539"><svg viewBox="0 0 244.43135999999998 127.2934088252149" height="127.2934088252149" width="244.43135999999998" id="SvgjsSvg2538"><g><svg viewBox="0 0 244.43135999999998 127.2934088252149" height="127.2934088252149" width="244.43135999999998"><g transform="matrix(1,0,0,1,0,0)"><svg width="244.43135999999998" viewBox="-3.42 -35.06 68.16 35.5" height="127.2934088252149" data-palette-color="url(#175b2cf2-5823-4be6-9d40-3743deb5c1c4)"><path d="M33.98-23.34L29.64-13.04 32.1-13.04 31.05-10.79 28.71-10.79 24.17 0 20.92 0 25.44-10.79 14.82-10.79Q14.72-10.6 14.64-10.44 14.55-10.28 14.45-10.11L14.45-10.11Q12.57-6.71 10.77-4.65 8.96-2.59 7.3-1.45 5.64-0.32 4.17 0.06 2.71 0.44 1.49 0.44L1.49 0.44Q0.44 0.44-0.45 0.11-1.34-0.22-2-0.82-2.66-1.42-3.04-2.29-3.42-3.17-3.42-4.27L-3.42-4.27Q-3.42-6.35-2.33-7.98-1.25-9.62 0.68-10.74 2.61-11.87 5.29-12.45 7.96-13.04 11.13-13.04L11.13-13.04 12.72-13.04Q15.36-17.53 17.53-20.9 19.7-24.27 21.53-26.71 23.36-29.15 24.89-30.76 26.42-32.37 27.76-33.31 29.1-34.25 30.31-34.63 31.52-35.01 32.69-35.01L32.69-35.01Q34.23-35.01 35.13-34.09 36.04-33.18 36.04-31.18L36.04-31.18Q36.04-29.76 35.55-27.83 35.06-25.9 33.98-23.34L33.98-23.34ZM32.42-34.11L32.42-34.11Q31.62-34.11 30.86-33.9 30.1-33.69 29.2-32.98 28.3-32.28 27.16-30.9 26.03-29.52 24.48-27.17 22.92-24.83 20.87-21.37 18.82-17.92 16.09-13.04L16.09-13.04 26.37-13.04 30.69-23.34Q32.1-26.76 32.95-29.02 33.79-31.27 33.79-32.57L33.79-32.57Q33.79-33.35 33.47-33.73 33.15-34.11 32.42-34.11ZM1.68-0.78L1.68-0.78Q3.3-0.78 4.58-1.57 5.86-2.37 6.95-3.66 8.03-4.96 9-6.59 9.96-8.23 10.91-9.91L10.91-9.91 11.43-10.79 9.99-10.79Q6.49-10.79 4.15-10.24 1.81-9.69 0.39-8.79-1.03-7.89-1.62-6.73-2.22-5.57-2.22-4.37L-2.22-4.37Q-2.22-3.69-2.01-3.04-1.81-2.39-1.34-1.89-0.88-1.39-0.13-1.09 0.61-0.78 1.68-0.78ZM36.62 0L33.47 0 37.84-10.42 36.47-10.42Q35.91-10.42 35.4-10.44 34.89-10.45 34.47-10.45L34.47-10.45 35.86-12.82Q36.64-12.77 37.38-12.77 38.11-12.77 38.82-12.77L38.82-12.77 43.43-23.71Q44.55-26.37 46.09-28.48 47.63-30.59 49.45-32.06 51.27-33.52 53.28-34.29 55.3-35.06 57.37-35.06L57.37-35.06Q58.64-35.06 59.96-34.64 61.28-34.23 62.34-33.37 63.4-32.52 64.07-31.24 64.74-29.96 64.74-28.2L64.74-28.2Q64.74-26.15 63.91-24.19 63.08-22.24 61.61-20.46 60.13-18.68 58.1-17.1 56.08-15.53 53.71-14.21L53.71-14.21Q52.02-13.26 50.35-12.61 48.68-11.96 47.07-11.55 45.46-11.13 43.94-10.89 42.43-10.64 41.04-10.55L41.04-10.55 36.62 0ZM46.53-23.71L41.97-12.82Q43.97-12.89 45.64-13.1 47.31-13.31 48.72-13.61 50.12-13.92 51.32-14.36 52.51-14.79 53.56-15.36L53.56-15.36Q55.49-16.38 56.98-17.96 58.47-19.53 59.47-21.34 60.47-23.14 60.98-25.02 61.5-26.9 61.5-28.56L61.5-28.56Q61.5-30.13 61.09-31.2 60.69-32.28 60.04-32.93 59.4-33.59 58.57-33.87 57.74-34.16 56.88-34.16L56.88-34.16Q55.93-34.16 54.66-33.64 53.39-33.13 52-31.92 50.61-30.71 49.19-28.71 47.78-26.71 46.53-23.71L46.53-23.71Z" opacity="1" transform="matrix(1,0,0,1,0,0)" fill="white" class="wordmark-text-0" id="SvgjsPath2537"></path></svg></g></svg></g></svg></g></svg></g></svg></g></svg></g></svg></g><g><path d="M0 123.6c0-68.262 55.338-123.6 123.6-123.6 38.374 0 72.663 17.487 95.334 44.928l-7.573 0c-21.578-24.055-52.902-39.188-87.761-39.188-65.092 0-117.86 52.768-117.86 117.86 0 65.092 52.768 117.86 117.86 117.86 34.859 0 66.183-15.133 87.761-39.188h7.573c-22.67 27.44-56.96 44.928-95.334 44.928-68.262 0-123.6-55.338-123.6-123.6z" fill="black" stroke="transparent"></path></g></svg></g><defs><mask></mask></defs></svg><rect width="395.52" height="247.2" fill="black" stroke="none" visibility="hidden"></rect></g></mask><linearGradient x1="0" x2="1" y1="0.548" y2="0.55" id="175b2cf2-5823-4be6-9d40-3743deb5c1c4"><stop stop-color="#ff6cab" offset="0"></stop><stop stop-color="#7366ff" offset="1"></stop></linearGradient><rect width="395.52" height="247.2" fill="url(#175b2cf2-5823-4be6-9d40-3743deb5c1c4)" mask="url(#19eda87a-edde-455a-80e6-e9cb70d96c6b)" data-fill-palette-color="primary"></rect><mask id="1a0b0b92-bbfe-4103-83e9-e30871bb7991"><g id="SvgjsG2563"><svg viewBox="0 0 395.52 247.2" height="247.2" width="395.52"><g><svg></svg></g><g><svg viewBox="0 0 395.52 247.2" height="247.2" width="395.52"><g transform="matrix(1,0,0,1,75.54432,59.953295587392546)"><svg viewBox="0 0 244.43135999999998 127.2934088252149" height="127.2934088252149" width="244.43135999999998"><g><svg viewBox="0 0 244.43135999999998 127.2934088252149" height="127.2934088252149" width="244.43135999999998"><g><svg viewBox="0 0 244.43135999999998 127.2934088252149" height="127.2934088252149" width="244.43135999999998"><g><svg viewBox="0 0 244.43135999999998 127.2934088252149" height="127.2934088252149" width="244.43135999999998"><g id="SvgjsG2562"><svg viewBox="0 0 244.43135999999998 127.2934088252149" height="127.2934088252149" width="244.43135999999998" id="SvgjsSvg2561"><g><svg viewBox="0 0 244.43135999999998 127.2934088252149" height="127.2934088252149" width="244.43135999999998"><g transform="matrix(1,0,0,1,0,0)"><svg width="244.43135999999998" viewBox="-3.42 -35.06 68.16 35.5" height="127.2934088252149" data-palette-color="url(#175b2cf2-5823-4be6-9d40-3743deb5c1c4)"></svg></g></svg></g></svg></g></svg></g></svg></g></svg></g></svg></g><g><path d="M0 123.6c0-68.262 55.338-123.6 123.6-123.6 38.374 0 72.663 17.487 95.334 44.928l-7.573 0c-21.578-24.055-52.902-39.188-87.761-39.188-65.092 0-117.86 52.768-117.86 117.86 0 65.092 52.768 117.86 117.86 117.86 34.859 0 66.183-15.133 87.761-39.188h7.573c-22.67 27.44-56.96 44.928-95.334 44.928-68.262 0-123.6-55.338-123.6-123.6z" fill="white" stroke="transparent"></path></g></svg></g><defs><mask></mask></defs><mask><g id="SvgjsG2560"><svg viewBox="0 0 395.52 247.2" height="247.2" width="395.52"><g><svg></svg></g><g><svg viewBox="0 0 395.52 247.2" height="247.2" width="395.52"><g transform="matrix(1,0,0,1,75.54432,59.953295587392546)"><svg viewBox="0 0 244.43135999999998 127.2934088252149" height="127.2934088252149" width="244.43135999999998"><g><svg viewBox="0 0 244.43135999999998 127.2934088252149" height="127.2934088252149" width="244.43135999999998"><g><svg viewBox="0 0 244.43135999999998 127.2934088252149" height="127.2934088252149" width="244.43135999999998"><g><svg viewBox="0 0 244.43135999999998 127.2934088252149" height="127.2934088252149" width="244.43135999999998"><g id="SvgjsG2559"><svg viewBox="0 0 244.43135999999998 127.2934088252149" height="127.2934088252149" width="244.43135999999998" id="SvgjsSvg2558"><g><svg viewBox="0 0 244.43135999999998 127.2934088252149" height="127.2934088252149" width="244.43135999999998"><g transform="matrix(1,0,0,1,0,0)"><svg width="244.43135999999998" viewBox="-3.42 -35.06 68.16 35.5" height="127.2934088252149" data-palette-color="url(#175b2cf2-5823-4be6-9d40-3743deb5c1c4)"><path d="M33.98-23.34L29.64-13.04 32.1-13.04 31.05-10.79 28.71-10.79 24.17 0 20.92 0 25.44-10.79 14.82-10.79Q14.72-10.6 14.64-10.44 14.55-10.28 14.45-10.11L14.45-10.11Q12.57-6.71 10.77-4.65 8.96-2.59 7.3-1.45 5.64-0.32 4.17 0.06 2.71 0.44 1.49 0.44L1.49 0.44Q0.44 0.44-0.45 0.11-1.34-0.22-2-0.82-2.66-1.42-3.04-2.29-3.42-3.17-3.42-4.27L-3.42-4.27Q-3.42-6.35-2.33-7.98-1.25-9.62 0.68-10.74 2.61-11.87 5.29-12.45 7.96-13.04 11.13-13.04L11.13-13.04 12.72-13.04Q15.36-17.53 17.53-20.9 19.7-24.27 21.53-26.71 23.36-29.15 24.89-30.76 26.42-32.37 27.76-33.31 29.1-34.25 30.31-34.63 31.52-35.01 32.69-35.01L32.69-35.01Q34.23-35.01 35.13-34.09 36.04-33.18 36.04-31.18L36.04-31.18Q36.04-29.76 35.55-27.83 35.06-25.9 33.98-23.34L33.98-23.34ZM32.42-34.11L32.42-34.11Q31.62-34.11 30.86-33.9 30.1-33.69 29.2-32.98 28.3-32.28 27.16-30.9 26.03-29.52 24.48-27.17 22.92-24.83 20.87-21.37 18.82-17.92 16.09-13.04L16.09-13.04 26.37-13.04 30.69-23.34Q32.1-26.76 32.95-29.02 33.79-31.27 33.79-32.57L33.79-32.57Q33.79-33.35 33.47-33.73 33.15-34.11 32.42-34.11ZM1.68-0.78L1.68-0.78Q3.3-0.78 4.58-1.57 5.86-2.37 6.95-3.66 8.03-4.96 9-6.59 9.96-8.23 10.91-9.91L10.91-9.91 11.43-10.79 9.99-10.79Q6.49-10.79 4.15-10.24 1.81-9.69 0.39-8.79-1.03-7.89-1.62-6.73-2.22-5.57-2.22-4.37L-2.22-4.37Q-2.22-3.69-2.01-3.04-1.81-2.39-1.34-1.89-0.88-1.39-0.13-1.09 0.61-0.78 1.68-0.78ZM36.62 0L33.47 0 37.84-10.42 36.47-10.42Q35.91-10.42 35.4-10.44 34.89-10.45 34.47-10.45L34.47-10.45 35.86-12.82Q36.64-12.77 37.38-12.77 38.11-12.77 38.82-12.77L38.82-12.77 43.43-23.71Q44.55-26.37 46.09-28.48 47.63-30.59 49.45-32.06 51.27-33.52 53.28-34.29 55.3-35.06 57.37-35.06L57.37-35.06Q58.64-35.06 59.96-34.64 61.28-34.23 62.34-33.37 63.4-32.52 64.07-31.24 64.74-29.96 64.74-28.2L64.74-28.2Q64.74-26.15 63.91-24.19 63.08-22.24 61.61-20.46 60.13-18.68 58.1-17.1 56.08-15.53 53.71-14.21L53.71-14.21Q52.02-13.26 50.35-12.61 48.68-11.96 47.07-11.55 45.46-11.13 43.94-10.89 42.43-10.64 41.04-10.55L41.04-10.55 36.62 0ZM46.53-23.71L41.97-12.82Q43.97-12.89 45.64-13.1 47.31-13.31 48.72-13.61 50.12-13.92 51.32-14.36 52.51-14.79 53.56-15.36L53.56-15.36Q55.49-16.38 56.98-17.96 58.47-19.53 59.47-21.34 60.47-23.14 60.98-25.02 61.5-26.9 61.5-28.56L61.5-28.56Q61.5-30.13 61.09-31.2 60.69-32.28 60.04-32.93 59.4-33.59 58.57-33.87 57.74-34.16 56.88-34.16L56.88-34.16Q55.93-34.16 54.66-33.64 53.39-33.13 52-31.92 50.61-30.71 49.19-28.71 47.78-26.71 46.53-23.71L46.53-23.71Z" opacity="1" transform="matrix(1,0,0,1,0,0)" fill="black" class="wordmark-text-0" id="SvgjsPath2557"></path></svg></g></svg></g></svg></g></svg></g></svg></g></svg></g></svg></g><g><path d="M0 123.6c0-68.262 55.338-123.6 123.6-123.6 38.374 0 72.663 17.487 95.334 44.928l-7.573 0c-21.578-24.055-52.902-39.188-87.761-39.188-65.092 0-117.86 52.768-117.86 117.86 0 65.092 52.768 117.86 117.86 117.86 34.859 0 66.183-15.133 87.761-39.188h7.573c-22.67 27.44-56.96 44.928-95.334 44.928-68.262 0-123.6-55.338-123.6-123.6z" fill="black" stroke="transparent"></path></g></svg></g><defs><mask></mask></defs></svg><rect width="395.52" height="247.2" fill="black" stroke="none" visibility="hidden"></rect></g></mask></svg><rect width="395.52" height="247.2" fill="black" stroke="none" visibility="hidden"></rect></g></mask><linearGradient x1="0" x2="1" y1="0.548" y2="0.55" id="c00951ad-d829-4928-b877-46b42da935df"><stop stop-color="#ff6cab" offset="0"></stop><stop stop-color="#7366ff" offset="1"></stop></linearGradient></svg><rect width="395.52" height="247.2" fill="none" stroke="none" visibility="hidden"></rect></g></svg></g></svg>